<?xml version="1.0" standalone="no"?><!DOCTYPE svg PUBLIC "-//W3C//DTD SVG 1.1//EN" "http://www.w3.org/Graphics/SVG/1.1/DTD/svg11.dtd"><svg t="1559027811655" class="icon" style="" viewBox="0 0 1318 1024" version="1.1" xmlns="http://www.w3.org/2000/svg" p-id="2450" xmlns:xlink="http://www.w3.org/1999/xlink" width="20.59375" height="16"><defs><style type="text/css"></style></defs><path d="M707.38929312 840.22175937c-40.70559844 0-80.35937344 0-118.64577562 1.68291938 252.43782188 7.36276969 441.76618781 37.76049094 441.76618781 73.62769781s-189.32836594 66.79084031-441.76618781 73.62769781c38.28640312 1.15700625 77.94017719 1.78810125 118.64577562 1.78810125 309.44669625 0 560.3067825-33.97392375 560.30678251-75.94171125s-250.86008531-74.784705-560.30678251-74.784705z" fill="#1A1F1C" p-id="2451"></path><path d="M588.7435175 841.90467875c-56.79850969 1.68291844-110.44154719 4.52284406-159.56174062 8.30941125 122.85307312 13.88408062 201.10879781 34.8153825 201.10879875 58.16588156 0 28.18888969-113.59701938 52.59121312-282.09926626 65.94938063 68.26339406 7.67831719 150.41086875 13.25298563 240.55220813 15.88254656 252.43782188-7.36276969 441.76618781-37.76049094 441.76618781-73.62769781s-189.32836594-67.3167525-441.76618781-74.67952219z" fill="#2D441E" p-id="2452"></path><path d="M630.29057563 908.37997156c0-23.35049813-78.25572469-44.28180094-201.10879876-58.16588156C260.67953094 862.94116344 147.71360563 887.86939813 147.71360563 916.05828875c0 23.45568094 78.15054281 44.28180094 201.00361593 58.27106344 167.97633375-13.14780281 281.57335406-37.76049094 281.57335406-65.94938063z" fill="#1A1F1C" p-id="2453"></path><path d="M975.81484344 44.20116125a120.11833031 120.11833031 0 0 1-108.02235094 172.81472531 119.27687063 119.27687063 0 0 1-52.59121312-12.20116125A120.11833031 120.11833031 0 1 0 975.81484344 44.20116125z" fill="#B5882D" p-id="2454"></path><path d="M988.01600562 96.79237438a119.27687063 119.27687063 0 0 0-12.20116218-52.59121313A120.11833031 120.11833031 0 0 0 803.00011812 152.22351219a118.96132312 118.96132312 0 0 0 12.20116125 52.59121312 119.27687063 119.27687063 0 0 0 52.59121313 12.20116125A120.22351219 120.22351219 0 0 0 988.01600562 96.79237438z" fill="#E3BC3D" p-id="2455"></path><path d="M214.74636594 689.91607344L839.1828725 65.44801156l125.39848875 125.40900563L340.13433594 815.29352469z" fill="#97A88E" p-id="2456"></path><path d="M329.15329063 804.31247938L953.6213525 179.85493625l55.6415025 55.6415025-624.46806187 624.44702531z" fill="#5E6959" p-id="2457"></path><path d="M214.7674025 689.88451812l624.45754312-624.46806187 62.68872563 62.70976313-624.44702531 624.44702531z" fill="#B7B58F" p-id="2458"></path><path d="M152.76236187 918.79303156c48.69946313-12.09597938 232.03243125-58.79697563 232.03243125-58.79697562L214.71481063 689.91607344l-69.9463125 220.14681656a6.73167563 6.73167563 0 0 0 7.99386375 8.73014156zM133.51397844 895.33735062S-10.06003281 848.11044125 86.28706906 764.06968344s37.33976156-129.58474875-25.13859937-162.08611782a28.08370781 28.08370781 0 0 0-24.92823563 0c-13.04262094 6.73167563 8.30941125 17.565465 8.30941219 17.565465s80.88528562 25.98005906 68.15821219 78.78163688S33.69585594 760.07275156 33.06476187 822.86665906s96.97819687 86.98586625 96.97819594 86.98586625 23.14013344-6.41612813 3.47102063-14.51517469z" fill="#E3BC3D" p-id="2459"></path><path d="M151.92090312 901.54311406l125.48263407-148.938315-63.10945594-63.10945594L147.71360563 902.48975562a10.51824281 10.51824281 0 0 1 4.52284406-0.94664156z" fill="#F5E8D0" p-id="2460"></path><path d="M162.54432781 908.37997156l166.60896281-104.02541906-51.74975343-51.74975344L151.92090312 901.54311406a12.20116125 12.20116125 0 0 1 10.62342469 6.8368575z" fill="#A9C3A4" p-id="2461"></path><path d="M163.91169969 913.74427531a15.04108687 15.04108687 0 0 1 0 2.31401344l220.88309344-56.06223281-55.6415025-55.64150344-166.60896282 104.02541906a11.99079656 11.99079656 0 0 1 1.36737188 5.36430375z" fill="#64897A" p-id="2462"></path><path d="M162.54432781 908.37997156a12.20116125 12.20116125 0 0 0-10.51824281-6.8368575 10.51824281 10.51824281 0 0 0-4.52284406 0.94664156l-2.41919625 7.57313438 5.67985125 5.89021594 2.31401343 2.83992562 10.51824282-2.73474281a15.04108687 15.04108687 0 0 0 0-2.31401344 11.99079656 11.99079656 0 0 0-1.05182438-5.36430375z" fill="#E3BC3D" p-id="2463"></path></svg>